<svg xmlns="http://www.w3.org/2000/svg" fill="none" viewBox="0 0 127 70" height="70" width="127">
<path fill="#BA0C2F" d="M0 2.28882e-05L30.6015 69.4066L97.3977 69.4066L127.008 4.50872e-05L0 2.28882e-05Z"></path>
<g clip-path="url(#clip0_95_2812)">
<path fill="white" d="M97.2913 16.3049L94.785 15.7894L95.5586 13.5663L93.705 14.3154L92.5767 8.24213L91.4162 14.404L89.2967 13.5099L90.2235 15.7169L86.895 16.176L87.5075 16.5466C85.2913 17.3198 82.4383 18.3992 77.2966 21.8466H77.2804L73.267 19.5429C73.267 19.5429 65.1837 24.2066 63.9345 24.9315C62.6853 24.2066 54.6503 19.5429 54.6503 19.5429L43.6657 25.9062V38.6246C43.6657 38.6246 48.1143 41.2102 50.9028 42.8292C48.2755 45.6322 41.4252 53.3889 41.2157 56.4336C41.1996 56.5786 41.0948 57.8915 42.078 58.8178C42.1828 58.9064 43.6335 60.606 46.7604 59.2689C48.5012 58.5278 52.289 56.5222 53.9895 55.4429L63.9264 61.2101L74.903 54.8388V44.0374C76.1522 43.3205 84.2919 38.6246 84.2919 38.6246V31.915C85.4444 30.7954 90.0059 26.2928 91.8111 23.7475C91.9239 23.6589 92.5848 27.5332 92.5848 27.5332L93.9387 20.4531L96.0986 21.911L94.9058 18.085L97.2994 16.2969L97.2913 16.3049ZM95.2201 20.7914L93.5277 19.5751L92.5848 25.2779C92.5848 25.2779 92.0932 22.7809 92.0448 22.6198C89.9736 25.592 85.936 29.6436 84.2839 31.2626C84.1952 31.3431 84.1146 31.4317 84.0421 31.5042L83.8326 31.7136V38.3668C83.4054 38.6165 74.4517 43.7796 74.4517 43.7796V54.581C74.0246 54.8307 64.3536 60.4449 63.9264 60.6865C63.5638 60.4771 54.0378 54.9515 53.9653 54.9113L53.7558 55.0401C53.6752 55.0885 53.6026 55.1287 53.522 55.1771C49.1943 57.7626 46.7443 58.7534 46.7443 58.7534C43.6173 60.171 42.4004 58.4795 42.4246 58.5117C41.4736 57.6177 41.6348 56.5786 41.7073 56.0953C41.7396 55.8698 42.0942 54.436 43.9881 51.7619C46.0593 48.8219 49.6214 44.7945 51.2655 43.0386C51.3058 42.9903 51.3622 42.9419 51.4025 42.8936L51.5878 42.7003C51.5878 42.7003 44.117 38.3668 44.1089 38.3588C44.1089 37.8674 44.1089 26.6472 44.1089 26.1639C44.5361 25.9223 54.2071 20.3081 54.6342 20.0584C55.0694 20.3081 63.9184 25.447 63.9184 25.447C63.9184 25.447 72.8237 20.3081 73.2509 20.0584C73.4201 20.1551 75.1045 21.1297 77.087 22.2735C77.1515 22.3138 77.216 22.346 77.2804 22.3862C77.3772 22.3138 77.627 22.1446 77.6915 22.1043C79.7868 20.7189 81.6808 19.5671 83.3893 18.7375C85.5653 17.6742 87.4028 17.0862 88.5713 16.6835L88.2328 16.458L90.8198 16.1036L90.0945 14.3798L91.7063 15.0645L92.5687 10.9727L93.3021 14.9759L94.7527 14.3798L94.1402 16.1519L96.1631 16.5546L94.3175 17.932L95.2282 20.7995L95.2201 20.7914Z"></path>
<path fill="white" d="M51.588 49.5791C51.8378 49.5227 52.0957 49.4502 52.3698 49.3616C52.7002 49.2488 53.0951 49.0877 53.5061 48.9025V46.6069C51.9668 48.2661 51.6364 49.2327 51.58 49.5791H51.588ZM53.0628 48.5964C52.8211 48.693 52.5068 48.8219 52.3536 48.8864C52.5068 48.6125 52.7405 48.2581 53.0628 47.8392V48.6044V48.5964Z"></path>
<path fill="white" d="M95.0838 16.7399L93.5203 16.5627L93.9958 15.1451L92.9078 15.87L92.5774 13.2039L92.1583 15.8781L90.9333 15.1129L91.5458 16.5627L89.6922 16.7238L90.6029 17.199C87.6291 18.0689 83.527 19.7846 78.4739 23.1273L81.6008 24.9316C81.9635 24.8269 82.3423 24.7544 82.6727 24.7866C82.9064 24.851 82.7049 25.2377 82.6727 25.3021C82.6485 25.3665 82.6082 25.431 82.584 25.5035L83.1482 25.8257C83.253 25.6001 83.3497 25.3907 83.4464 25.1813C83.6882 24.6094 84.7923 21.903 83.3497 21.7419C84.0025 22.2091 83.7365 23.0468 83.4383 23.8522C82.4793 23.6992 81.3913 24.0294 80.5773 24.3436L78.9816 23.4253C86.1462 18.7455 89.7728 17.8273 91.159 17.5696C91.159 17.5696 91.1671 17.5696 91.1751 17.5696L91.2799 17.6259C91.2799 17.6259 91.3121 17.6743 91.3202 17.7145L90.5465 19.8652L91.973 18.5603L92.0777 19.2208C91.1187 21.5164 87.6291 25.2699 83.8171 28.9348V30.3282C87.2019 27.0983 90.6996 23.4495 92.3034 20.7512L92.6016 22.7165L93.1174 18.5764L94.423 19.6718L93.746 17.6662L95.0999 16.7641L95.0838 16.7399ZM93.1093 18.0609C92.9401 17.932 92.7708 18.077 92.7466 18.3186C92.7466 18.3348 92.7466 18.3509 92.7466 18.375C92.7466 18.3911 92.7466 18.4153 92.7466 18.4395C92.7466 18.4395 92.7466 18.4475 92.7466 18.4556C92.7305 18.6247 92.7144 18.9066 92.6902 19.2127C92.658 19.6477 92.6177 20.1229 92.6016 20.3484C92.6016 20.3323 92.5855 20.3243 92.5693 20.3243C92.5613 20.2196 92.5371 20.0826 92.521 19.9135C92.4646 19.4221 92.384 18.7536 92.3437 18.4475C92.3437 18.4475 92.3437 18.4395 92.3437 18.4314C92.3437 18.4072 92.3437 18.3911 92.3437 18.375C92.3437 18.3509 92.3437 18.3267 92.3437 18.3186C92.3195 18.0689 92.1664 17.9481 91.973 18.0851C91.7795 18.222 91.4894 18.4556 91.4894 18.4556C91.4894 18.4556 91.699 17.8273 91.7393 17.6984C91.7795 17.5696 91.7393 17.4648 91.6264 17.3843C91.5055 17.3037 90.9978 16.9735 90.9978 16.9735C90.9978 16.9735 91.3202 16.9735 91.6264 16.9735C91.9327 16.9735 92.0536 16.901 91.9971 16.6835C91.9407 16.4661 91.8279 16.1197 91.8279 16.1197C91.8279 16.1197 92.1986 16.305 92.3195 16.3533C92.4404 16.4016 92.5613 16.3775 92.5613 16.1922C92.5613 16.0069 92.5935 15.3706 92.5935 15.3706C92.5935 15.3706 92.6419 15.9747 92.658 16.1922C92.6741 16.4097 92.8272 16.4338 92.9401 16.3533C93.0529 16.2727 93.2705 16.1197 93.2705 16.1197C93.2705 16.1197 93.1657 16.4902 93.1254 16.6755C93.0851 16.8688 93.1657 16.9654 93.3914 16.9574C93.617 16.9493 94.1006 16.9735 94.1006 16.9735C94.1006 16.9735 93.617 17.2876 93.472 17.3843C93.335 17.481 93.3269 17.5696 93.3672 17.6984C93.4075 17.8354 93.6009 18.4475 93.6009 18.4475C93.6009 18.4475 93.2866 18.2059 93.1174 18.0689L93.1093 18.0609Z"></path>
<path fill="white" d="M48.2271 50.014C48.6542 52.1727 52.031 51.1256 52.9417 50.8437C53.1351 50.7792 53.3366 50.7067 53.538 50.6262V50.0946C53.2318 50.2234 52.9336 50.3443 52.6515 50.4409C52.0068 50.6503 51.491 50.7631 51.0639 50.8275C51.0478 50.8034 50.669 50.4006 50.669 49.6354C50.669 49.0877 50.8866 47.7748 53.538 45.2617V43.8199C50.3547 46.6794 49.7905 48.3467 49.7663 49.4905C49.7422 50.3765 50.2015 50.7631 50.2821 50.8437C49.6213 50.9886 48.6703 50.7228 48.2271 50.0221V50.014Z"></path>
<path fill="white" d="M46.1243 56.788C44.2546 57.4002 43.8839 56.9572 43.6905 56.7558C43.5696 56.6269 43.5373 56.4578 43.5373 56.3128C43.5051 54.1944 50.6778 46.0027 53.0149 43.4091L53.5226 43.7071L52.475 43.103C50.307 45.4711 42.7959 53.8561 42.7878 56.5061C42.7878 57.7546 44.0612 58.6004 47.0028 57.4969C48.0908 57.0861 50.3312 55.9503 53.5226 53.985V52.7687C49.2352 55.4268 46.6965 56.6028 46.1163 56.788H46.1243Z"></path>
<path fill="white" d="M79.8836 30.7471C81.028 29.3536 81.8258 28.1937 82.4141 27.1788V27.0097L73.3073 21.75L64.2004 27.0097V37.5211L69.4067 40.5255C74.6693 36.4901 77.9413 33.1152 79.8836 30.7471ZM71.2764 33.824C71.494 33.9529 71.6874 34.0173 71.8566 34.0173C72.0501 34.0173 72.2193 33.9609 72.3563 33.8482C72.4933 33.7354 72.5497 33.5904 72.5497 33.4213C72.5497 33.3004 72.453 33.0588 72.2354 32.6802C71.8889 32.0761 71.7277 31.472 71.7277 30.876C71.7277 30.143 71.9775 29.5228 72.4933 28.9992C73.001 28.4837 73.6135 28.2099 74.3308 28.2099C74.637 28.2099 74.9514 28.2662 75.2576 28.3709V30.5618C75.0884 30.5135 74.9594 30.4813 74.8708 30.4813C74.7015 30.4813 74.5565 30.5377 74.4356 30.6665C74.3227 30.7954 74.2502 30.9485 74.2502 31.1257C74.2502 31.2787 74.3227 31.472 74.4517 31.7137L74.629 32.0197C74.9433 32.5675 75.0964 33.0991 75.0964 33.6065C75.0964 34.3556 74.8385 34.9919 74.3147 35.5074C73.7828 36.0229 73.138 36.2887 72.3805 36.2887C72.0178 36.2887 71.6552 36.2001 71.2925 36.031V33.8079L71.2764 33.824Z"></path>
<path fill="white" d="M63.7486 37.5211V27.0097L54.6901 21.75L45.6316 27.0097V37.5211L54.6901 42.7809L63.7486 37.5211ZM54.8996 33.3649H54.4564V31.3029C54.8754 31.3029 55.085 31.1579 55.085 30.8679C55.085 30.6021 54.8996 30.4652 54.5208 30.4652H54.1018V36.1115H51.8371V28.4112H54.6095C56.2536 28.4112 57.0756 29.0637 57.0756 30.3685C57.0756 31.0129 56.7935 31.5526 56.2294 31.9875C57.0434 32.3419 57.4544 32.9863 57.4544 33.9045C57.4544 34.6053 57.2126 35.1691 56.7371 35.5799C56.5034 35.7813 56.2455 35.9263 55.9876 35.9988C55.7217 36.0793 55.359 36.1196 54.9077 36.1196H54.4725V34.1301H54.8593C55.085 34.1301 55.2381 34.1059 55.3268 34.0495C55.4235 33.9851 55.4718 33.8804 55.4718 33.7354C55.4718 33.4938 55.2865 33.3649 54.9077 33.3649H54.8996Z"></path>
<path fill="white" d="M77.5454 34.6697C74.894 36.9573 72.4037 39.0273 70.0585 40.9041L73.3063 42.7809L82.4132 37.5211V30.2316C80.7369 31.8022 79.0525 33.3246 77.5454 34.6697Z"></path>
<path fill="white" d="M54.916 50.006C57.2612 48.8702 59.8966 47.1707 61.4036 46.1477C61.5326 45.8417 61.7099 45.5597 61.9436 45.3181C62.411 44.8429 63.0316 44.5851 63.773 44.5368C65.675 43.2641 67.3997 42.0318 68.9551 40.8558L63.9745 37.9641L54.916 43.2239V49.9979V50.006Z"></path>
<path fill="white" d="M65.1509 44.7221C65.4894 44.8509 65.7715 45.0443 66.0052 45.302C66.4645 45.8175 66.6902 46.5505 66.6902 47.5171V52.4304H64.4256V47.5171C64.4256 47.0418 64.2563 46.8082 63.9179 46.8082C63.5794 46.8082 63.4343 47.0418 63.4343 47.5171V52.4304H61.1616V47.6459C58.8245 49.3213 56.7371 50.7228 54.9077 51.8908V53.7434L63.9662 59.0031L73.0247 53.7434V43.2319L69.6157 41.2505C68.0522 42.499 66.5613 43.6508 65.1428 44.7221H65.1509Z"></path>
<path fill="white" d="M78.2641 54.9998C78.0303 55.2334 77.7483 55.3462 77.4179 55.3462C77.0874 55.3462 76.8054 55.2254 76.5797 54.9998C76.354 54.7662 76.2332 54.4843 76.2332 54.1541C76.2332 53.8238 76.346 53.55 76.5797 53.3164C76.8134 53.0828 77.0874 52.97 77.4179 52.97C77.7483 52.97 78.0303 53.0828 78.2641 53.3164C78.4978 53.55 78.6106 53.8238 78.6106 54.1541C78.6106 54.4843 78.4897 54.7662 78.2641 54.9998ZM76.7006 53.4372C76.4991 53.6386 76.4024 53.8802 76.4024 54.1621C76.4024 54.444 76.4991 54.6937 76.7006 54.8951C76.9021 55.0965 77.1438 55.1931 77.4259 55.1931C77.708 55.1931 77.9498 55.0965 78.1512 54.8951C78.3447 54.6937 78.4494 54.4521 78.4494 54.1621C78.4494 53.8722 78.3527 53.6386 78.1512 53.4372C77.9498 53.2358 77.708 53.1392 77.4259 53.1392C77.1438 53.1392 76.9021 53.2358 76.7006 53.4372ZM77.4017 53.5016C77.5629 53.5016 77.6838 53.5178 77.7563 53.55C77.8933 53.6064 77.9578 53.7191 77.9578 53.8802C77.9578 53.993 77.9175 54.0816 77.8289 54.138C77.7886 54.1702 77.7241 54.1863 77.6435 54.2024C77.7483 54.2185 77.8208 54.2588 77.8692 54.3313C77.9175 54.3957 77.9417 54.4682 77.9417 54.5327V54.6293C77.9417 54.6293 77.9417 54.6937 77.9417 54.726C77.9417 54.7582 77.9417 54.7823 77.9498 54.7904V54.8065H77.7402C77.7402 54.8065 77.7402 54.7985 77.7402 54.7904C77.7402 54.7904 77.7402 54.7823 77.7402 54.7743V54.734V54.6293C77.7402 54.4763 77.6999 54.3796 77.6193 54.3313C77.571 54.3071 77.4823 54.291 77.3614 54.291H77.1841V54.8065H76.9504V53.5016H77.4098H77.4017ZM77.6516 53.7111C77.5952 53.6788 77.4984 53.6627 77.3695 53.6627H77.1761V54.1299H77.3856C77.4823 54.1299 77.5549 54.1219 77.6032 54.1057C77.6919 54.0735 77.7402 54.001 77.7402 53.9044C77.7402 53.8077 77.708 53.7433 77.6516 53.7111Z"></path>
</g>
<defs>
<clipPath id="clip0_95_2812">
<rect transform="translate(41.2098 8.24209)" fill="white" height="52.9679" width="56.0837"></rect>
</clipPath>
</defs>
</svg>
