<svg xmlns="http://www.w3.org/2000/svg" fill="none" viewBox="0 0 125 39" height="39" width="125">
<path fill="#191C20" d="M6.23556 0.330078H0.739258V38.6389H6.23556V0.330078Z"></path>
<path fill="#191C20" d="M26.6295 11.3439H21.1332V10.1041C21.1332 7.58325 20.0587 5.47564 17.2692 5.47564C14.2525 5.47564 13.5499 7.89319 13.5499 10.4347C13.5499 13.3895 13.8185 14.4226 16.67 15.5384L20.8646 17.2121C25.6997 19.0511 26.6295 22.1092 26.6295 27.7088C26.6295 34.1556 24.2533 38.9494 17.1659 38.9494C11.8349 38.9494 7.80566 35.0235 7.80566 29.8578V27.8121H13.302V29.5271C13.302 31.5108 14.3764 33.4531 17.1659 33.4531C20.8852 33.4531 21.1538 31.2422 21.1538 27.7501C21.1538 23.6589 20.6786 23.0184 17.9718 21.9439L14.0458 20.3322C9.29339 18.4106 8.05362 15.2905 8.05362 10.4967C8.05362 4.69046 11.1737 0 17.4759 0C22.9722 0 26.6295 4.42184 26.6295 8.65771V11.3439Z"></path>
<path fill="#191C20" d="M33.1807 29.5891C33.1807 32.2133 34.8957 33.4531 36.9 33.4531C38.8837 33.4531 40.6193 32.2133 40.6193 29.5891V9.36025C40.6193 6.71541 38.9043 5.49631 36.9 5.49631C34.9164 5.49631 33.1807 6.73607 33.1807 9.36025V29.5891ZM27.7051 9.36025C27.7051 3.12008 32.4369 0 36.9 0C41.3632 0 46.095 3.12008 46.095 9.36025V29.5891C46.095 35.8293 41.3632 38.9494 36.9 38.9494C32.4369 38.9494 27.7051 35.8293 27.7051 29.5891V9.36025Z"></path>
<path fill="#191C20" d="M53.7395 18.5133H56.3843C60.8475 18.5133 60.9095 15.8685 60.9095 12.0665C60.9095 8.47122 60.9095 5.49578 56.6116 5.49578H53.7601V18.5133H53.7395ZM48.2432 0.330078H56.467C59.4837 0.330078 61.6947 1.03261 63.575 3.01624C65.4553 4.99987 66.0545 7.41742 66.0545 12.0046C66.0545 15.3313 65.7859 17.6042 64.5048 19.6911C62.9964 22.1707 60.5789 23.679 56.5496 23.679H53.7601V38.6389H48.2638V0.330078H48.2432Z"></path>
<path fill="#191C20" d="M85.2085 30.0225C85.2085 35.0229 81.2206 38.9489 76.3235 38.9489C71.4264 38.9489 67.4385 35.0229 67.4385 30.0225V0.330078H72.9348V29.4853C72.9348 32.1715 74.3812 33.4732 76.3235 33.4732C78.2658 33.4732 79.7122 32.1921 79.7122 29.4853V0.330078H85.2085V30.0225Z"></path>
<path fill="#191C20" d="M93.1641 17.4389H96.2842C100.107 17.4389 100.706 15.2899 100.706 11.4673C100.706 7.60338 100.066 5.49578 96.0156 5.49578H93.1641V17.4389ZM87.6885 0.330078H96.5115C103.02 0.330078 106.202 4.1527 106.202 11.5706C106.202 15.9925 104.963 19.2159 101.471 21.1375L107.38 38.6183H101.574L96.4702 22.274H93.1848V38.6183H87.6885V0.330078Z"></path>
<path fill="#191C20" d="M107.918 0.330078H124.262V5.49578H113.394V16.7363H122.857V21.902H113.394V33.1426H124.262V38.6389H107.918V0.330078Z"></path>
</svg>
