<svg xml:space="preserve" width="750.82666" height="210.93733" viewBox="0 0 750.82666 210.93733" xmlns="http://www.w3.org/2000/svg">
  <defs id="defs6">
    <clipPath clipPathUnits="userSpaceOnUse" id="clipPath18">
      <path d="M 0,158.203 H 563.12 V 0 H 0 Z"></path>
    </clipPath>
  </defs>
  <g transform="matrix(1.3333333,0,0,-1.3333333,0,210.93733)">
    <g>
      <g clip-path="url(#clipPath18)">
        <g transform="translate(129.083,101.506)">
          <path d="m 0,0 1.379,2.715 c 2.081,4.045 3.81,6.452 5.185,7.24 1.377,0.819 3.016,1.252 4.832,1.252 2.197,0 3.355,-0.516 3.554,-1.504 C 15.138,8.697 14.292,6.36 12.468,2.736 L 10.31,-1.388 c 11.076,-1.59 21.847,-3.233 32.106,-4.981 3.176,6.36 5.208,10.915 6.062,13.695 0.971,3.233 0.437,6.211 -1.65,8.943 -2.062,2.71 -5.593,4.739 -10.593,6.132 -4.971,1.343 -11.027,2.037 -18.208,2.037 C 10.474,24.41 3.522,23.661 -2.91,22.245 -9.315,20.743 -14.881,18.715 -19.607,15.994 -24.293,13.315 -27.835,10.289 -30.141,7.006 -30.725,6.171 -31.419,5.095 -32.117,3.966 -21.201,2.736 -10.48,1.392 0,0" style="fill:#ffffff;fill-opacity:1;fill-rule:nonzero;stroke:none"></path>
        </g>
        <g transform="translate(105.3628,44.4419)">
          <path d="m 0,0 c 7.535,0.035 14.512,0.742 20.909,2.216 6.408,1.454 11.981,3.514 16.716,6.211 4.705,2.751 8.19,5.712 10.5,8.98 2.312,3.243 5.515,8.81 9.525,16.692 l 6.849,13.412 0.092,0.145 C 54.37,49.597 43.672,51.411 32.762,53.153 L 17.739,23.843 C 15.363,19.254 13.536,16.291 12.253,15.096 10.933,13.84 9.117,13.245 6.664,13.24 c -2.323,0 -3.549,0.512 -3.631,1.606 -0.101,1.058 1.019,3.843 3.338,8.411 l 16.134,31.466 c -10.583,1.603 -21.312,3.092 -31.973,4.559 -1.8,-3.105 -3.966,-7.067 -6.445,-11.872 l -6.853,-13.414 c -4.106,-8.049 -6.683,-13.655 -7.654,-16.923 -1.012,-3.211 -0.488,-6.211 1.6,-8.912 2.048,-2.756 5.581,-4.786 10.56,-6.119 C -13.243,0.681 -7.172,0 0,0" style="fill:#ffffff;fill-opacity:1;fill-rule:nonzero;stroke:none"></path>
        </g>
        <g transform="translate(199.8541,81.6881)">
          <path d="m 0,0 -0.165,-35.38 30.523,0.036 13.356,26.002 C 28.471,-2.394 4.116,3.848 -24.241,9.351 l -22.97,-44.823 29.061,0.04 z" style="fill:#ffffff;fill-opacity:1;fill-rule:nonzero;stroke:none"></path>
        </g>
        <g transform="translate(225.2952,83.9831)">
          <path d="M 0,0 C 7.75,-2.02 14.738,-4.206 20.929,-6.463 L 44.956,40.398 15.925,40.378 -2.109,5.229 -3.61,40.328 -32.626,40.292 -48.083,10.166 C -30.245,7.056 -14.008,3.648 0,0" style="fill:#ffffff;fill-opacity:1;fill-rule:nonzero;stroke:none"></path>
        </g>
        <g transform="translate(246.1616,77.5332)">
          <path d="m 0,0 -2.605,-5.187 c 3.769,-1.698 6.982,-3.479 9.572,-5.267 15.474,-10.769 12.964,-16.418 1.283,-21.895 -19.766,-9.287 -83.784,-13.895 -83.784,-13.895 5.341,6.053 9.8,12.648 9.8,12.648 -35.702,-14.71 -78.409,-21.204 -94.021,-23.446 C -85.347,-61.076 3.069,-54.6 30.577,-36.069 44.217,-26.911 33.099,-12.063 0,0" style="fill:#ffffff;fill-opacity:1;fill-rule:nonzero;stroke:none"></path>
        </g>
        <g transform="translate(62.8446,109.1045)">
          <path d="M 0,0 -35.662,2.791 C -14.645,0.54 9.124,-2.196 33.19,-5.402 l 1.1,1.77 z" style="fill:#ffffff;fill-opacity:1;fill-rule:nonzero;stroke:none"></path>
        </g>
        <g transform="translate(318.1931,114.3234)">
          <path d="m 0,0 c -0.41,0.702 -1.523,1.815 -2.108,2.166 h -8.607 c -0.468,-0.351 -1.464,-1.229 -2.167,-2.225 v -17.565 c 0.644,-0.878 1.64,-1.873 2.109,-2.166 h 8.606 c 0.468,0.351 1.523,1.347 2.167,2.166 z m 6.148,-21.254 c -0.762,-0.995 -2.986,-3.513 -4.274,-4.274 -0.996,-0.586 -2.459,-1.113 -3.865,-1.113 h -8.9 c -1.464,0 -2.868,0.527 -3.864,1.113 -1.288,0.761 -3.572,3.279 -4.274,4.274 -0.762,1.112 -0.995,2.401 -0.995,3.63 V 0 c 0,1.288 0.233,2.576 0.995,3.689 0.702,0.936 2.986,3.454 4.274,4.215 0.996,0.585 2.4,1.113 3.864,1.113 h 8.9 c 1.406,0 2.869,-0.528 3.865,-1.113 C 3.162,7.143 5.386,4.625 6.148,3.689 6.909,2.576 7.143,1.288 7.143,0 v -17.624 c 0,-1.229 -0.234,-2.518 -0.995,-3.63" style="fill:#ffffff;fill-opacity:1;fill-rule:nonzero;stroke:none"></path>
        </g>
        <g transform="translate(349.1658,114.8502)">
          <path d="m 0,0 c -0.293,0.468 -0.937,1.112 -1.523,1.405 h -9.953 v -8.021 h 9.953 c 0.176,0 1.171,0.82 1.523,1.405 z M 6.03,-8.958 C 5.504,-9.778 3.689,-11.534 2.869,-12.12 1.58,-13.057 0,-13.467 -1.523,-13.467 h -9.953 v -13.408 h -7.143 v 35.13 h 17.096 c 1.464,0 3.279,-0.526 4.392,-1.346 C 3.689,6.265 5.445,4.45 6.03,3.689 6.792,2.635 7.143,1.112 7.143,-0.175 v -4.978 c 0,-1.405 -0.351,-2.693 -1.113,-3.805" style="fill:#ffffff;fill-opacity:1;fill-rule:nonzero;stroke:none"></path>
        </g>
        <g transform="translate(375.0455,116.2552)">
          <path d="M 0,0 V -28.28 H -7.202 V 0 h -9.485 V 6.85 H 9.426 l 0,-6.85 z" style="fill:#ffffff;fill-opacity:1;fill-rule:nonzero;stroke:none"></path>
        </g>
        <path d="m 388.453,123.106 h 7.202 v -35.13 h -7.202 z" style="fill:#ffffff;fill-opacity:1;fill-rule:nonzero;stroke:none"></path>
        <g transform="translate(425.3387,87.9756)">
          <path d="M 0,0 V 21.137 C -1.991,16.862 -4.098,12.588 -6.089,8.373 h -4.684 l -6.031,12.705 V 0 h -7.142 v 35.13 h 7.786 l 7.847,-15.925 c 2.575,5.269 5.151,10.714 7.728,15.925 H 7.144 L 7.144,0 Z" style="fill:#ffffff;fill-opacity:1;fill-rule:nonzero;stroke:none"></path>
        </g>
        <g transform="translate(463.6905,93.0696)">
          <path d="M 0,0 C -0.703,-0.995 -2.928,-3.513 -4.216,-4.274 -5.27,-4.86 -6.675,-5.387 -8.081,-5.387 h -8.372 c -1.464,0 -2.869,0.527 -3.864,1.113 -1.289,0.761 -3.572,3.279 -4.274,4.274 -0.762,1.112 -0.995,2.4 -0.995,3.63 v 26.406 h 7.142 V 3.689 c 0.703,-0.879 1.698,-1.933 2.167,-2.225 h 8.021 c 0.468,0.292 1.463,1.229 2.107,2.166 V 30.036 H 0.995 V 3.63 C 0.995,2.4 0.76,1.112 0,0" style="fill:#ffffff;fill-opacity:1;fill-rule:nonzero;stroke:none"></path>
        </g>
        <g transform="translate(493.8441,87.9756)">
          <path d="M 0,0 V 21.137 C -1.991,16.862 -4.098,12.588 -6.089,8.373 h -4.684 l -6.031,12.705 V 0 h -7.142 v 35.13 h 7.786 l 7.847,-15.925 c 2.575,5.269 5.151,10.714 7.728,15.925 H 7.144 L 7.144,0 Z" style="fill:#ffffff;fill-opacity:1;fill-rule:nonzero;stroke:none"></path>
        </g>
        <g transform="translate(316.6718,47.2134)">
          <path d="M 0,0 -11.359,20.668 V 0 h -7.143 v 35.13 h 7.319 L 0.059,14.169 V 35.13 H 7.201 L 7.201,0 Z" style="fill:#ffffff;fill-opacity:1;fill-rule:nonzero;stroke:none"></path>
        </g>
        <g transform="translate(354.964,52.3074)">
          <path d="M 0,0 C -0.703,-0.996 -2.928,-3.514 -4.216,-4.274 -5.27,-4.859 -6.675,-5.387 -8.081,-5.387 h -8.372 c -1.464,0 -2.869,0.528 -3.864,1.113 -1.289,0.76 -3.572,3.278 -4.274,4.274 -0.762,1.112 -0.995,2.4 -0.995,3.63 v 26.406 h 7.142 V 3.689 c 0.703,-0.879 1.698,-1.933 2.167,-2.225 h 8.021 c 0.468,0.292 1.463,1.23 2.107,2.166 V 30.036 H 0.995 V 3.63 C 0.995,2.4 0.76,1.112 0,0" style="fill:#ffffff;fill-opacity:1;fill-rule:nonzero;stroke:none"></path>
        </g>
        <g transform="translate(376.1591,75.493)">
          <path d="M 0,0 V -28.28 H -7.202 V 0 h -9.486 V 6.851 H 9.426 L 9.426,0 Z" style="fill:#ffffff;fill-opacity:1;fill-rule:nonzero;stroke:none"></path>
        </g>
        <g transform="translate(407.9518,74.088)">
          <path d="m 0,0 c -0.293,0.468 -0.937,1.112 -1.523,1.405 h -9.953 v -8.021 h 9.953 c 0.176,0 1.171,0.819 1.523,1.405 z M 6.03,-8.959 C 5.504,-9.778 3.689,-11.535 2.869,-12.12 2.4,-12.471 1.932,-12.706 1.463,-12.939 c 2.87,-5.27 7.612,-13.936 7.612,-13.936 H 1.112 l -6.967,13.409 h -5.621 v -13.409 h -7.143 V 8.256 h 17.096 c 1.464,0 3.279,-0.527 4.392,-1.347 C 3.689,6.265 5.445,4.45 6.03,3.689 6.792,2.635 7.143,1.112 7.143,-0.176 v -4.977 c 0,-1.405 -0.351,-2.692 -1.113,-3.806" style="fill:#ffffff;fill-opacity:1;fill-rule:nonzero;stroke:none"></path>
        </g>
        <path d="m 420.89,82.344 h 7.202 v -35.13 h -7.202 z" style="fill:#ffffff;fill-opacity:1;fill-rule:nonzero;stroke:none"></path>
        <g transform="translate(448.8194,75.493)">
          <path d="M 0,0 V -28.28 H -7.202 V 0 h -9.485 V 6.851 H 9.426 L 9.426,0 Z" style="fill:#ffffff;fill-opacity:1;fill-rule:nonzero;stroke:none"></path>
        </g>
        <path d="m 462.226,82.344 h 7.202 v -35.13 h -7.202 z" style="fill:#ffffff;fill-opacity:1;fill-rule:nonzero;stroke:none"></path>
        <g transform="translate(495.0732,73.5612)">
          <path d="m 0,0 c -0.41,0.702 -1.523,1.815 -2.108,2.166 h -8.607 c -0.468,-0.351 -1.464,-1.229 -2.167,-2.225 v -17.565 c 0.644,-0.878 1.64,-1.873 2.109,-2.166 h 8.606 c 0.468,0.351 1.523,1.346 2.167,2.166 z m 6.148,-21.254 c -0.762,-0.996 -2.986,-3.513 -4.274,-4.274 -0.996,-0.585 -2.459,-1.113 -3.865,-1.113 h -8.9 c -1.464,0 -2.868,0.528 -3.864,1.113 -1.288,0.761 -3.572,3.278 -4.274,4.274 -0.762,1.112 -0.995,2.401 -0.995,3.63 V 0 c 0,1.288 0.233,2.576 0.995,3.689 0.702,0.936 2.986,3.454 4.274,4.215 0.996,0.585 2.4,1.113 3.864,1.113 h 8.9 c 1.406,0 2.869,-0.528 3.865,-1.113 C 3.162,7.143 5.386,4.625 6.148,3.689 6.909,2.576 7.143,1.288 7.143,0 v -17.624 c 0,-1.229 -0.234,-2.518 -0.995,-3.63" style="fill:#ffffff;fill-opacity:1;fill-rule:nonzero;stroke:none"></path>
        </g>
        <g transform="translate(525.9286,47.2134)">
          <path d="M 0,0 -11.359,20.668 V 0 h -7.142 v 35.13 h 7.318 L 0.059,14.169 V 35.13 H 7.201 V 0 Z" style="fill:#ffffff;fill-opacity:1;fill-rule:nonzero;stroke:none"></path>
        </g>
        <g transform="translate(543.9341,53.5374)">
          <path d="M 0,0 C 0.375,0 0.676,0.051 0.912,0.151 1.151,0.254 1.269,0.502 1.269,0.896 1.269,1.069 1.224,1.209 1.151,1.312 1.062,1.414 0.959,1.495 0.827,1.555 0.702,1.609 0.555,1.646 0.397,1.668 0.235,1.69 0.085,1.698 -0.059,1.698 H -1.143 V 0 Z M 0.019,2.704 C 0.831,2.704 1.456,2.562 1.897,2.273 2.331,1.981 2.555,1.484 2.555,0.785 2.555,0.486 2.503,0.232 2.422,0.022 2.331,-0.189 2.209,-0.362 2.059,-0.494 1.9,-0.629 1.721,-0.734 1.514,-0.804 1.309,-0.877 1.088,-0.923 0.853,-0.945 L 2.584,-3.77 H 1.239 l -1.578,2.763 H -1.143 V -3.77 h -1.284 v 6.474 z m -4.158,-5.068 c 0.228,-0.556 0.533,-1.039 0.926,-1.45 0.39,-0.407 0.853,-0.72 1.382,-0.95 0.533,-0.224 1.099,-0.337 1.709,-0.337 0.6,0 1.162,0.113 1.691,0.337 0.533,0.23 0.99,0.543 1.384,0.95 0.392,0.411 0.706,0.894 0.936,1.45 0.232,0.556 0.35,1.166 0.35,1.821 0,0.656 -0.118,1.266 -0.35,1.82 C 3.659,1.825 3.345,2.3 2.953,2.704 2.559,3.104 2.102,3.42 1.569,3.649 1.04,3.87 0.478,3.987 -0.122,3.987 -0.732,3.987 -1.298,3.87 -1.831,3.649 -2.36,3.42 -2.823,3.104 -3.213,2.704 -3.606,2.3 -3.911,1.825 -4.139,1.277 -4.367,0.723 -4.482,0.113 -4.482,-0.543 c 0,-0.655 0.115,-1.265 0.343,-1.821 m -1.435,4.205 c 0.328,0.71 0.762,1.311 1.309,1.814 0.544,0.502 1.181,0.888 1.894,1.16 0.716,0.27 1.467,0.408 2.249,0.408 0.783,0 1.533,-0.138 2.247,-0.408 C 2.846,4.543 3.471,4.157 4.022,3.655 4.565,3.152 5.004,2.551 5.324,1.841 5.65,1.125 5.812,0.335 5.812,-0.543 5.812,-1.431 5.65,-2.227 5.324,-2.942 5.004,-3.649 4.565,-4.254 4.022,-4.764 3.471,-5.268 2.846,-5.652 2.125,-5.922 1.411,-6.186 0.661,-6.324 -0.122,-6.324 c -0.782,0 -1.533,0.138 -2.249,0.402 -0.713,0.27 -1.35,0.654 -1.894,1.158 -0.547,0.51 -0.981,1.115 -1.309,1.822 -0.322,0.715 -0.481,1.511 -0.481,2.399 0,0.878 0.159,1.668 0.481,2.384" style="fill:#ffffff;fill-opacity:1;fill-rule:nonzero;stroke:none"></path>
        </g>
      </g>
    </g>
  </g>
</svg>